<mxfile host="app.diagrams.net" modified="2024-06-12T05:53:52.366Z" agent="Mozilla/5.0 (Windows NT 10.0; Win64; x64) AppleWebKit/537.36 (KHTML, like Gecko) Chrome/124.0.0.0 Safari/537.36 OPR/110.0.0.0" version="24.4.13" etag="Zxt_dVQ_6iJLQeF1ZTkx" type="github">
  <diagram name="Page-1" id="Q22-e7Yn3xEjWrUtQVBh">
    <mxGraphModel>
      <root>
        <mxCell id="0" />
        <mxCell id="1" parent="0" />
      </root>
    </mxGraphModel>
  </diagram>
</mxfile>
